<?xml version="1.0" standalone="no"?>
<!DOCTYPE svg PUBLIC "-//W3C//DTD SVG 20010904//EN"
 "http://www.w3.org/TR/2001/REC-SVG-20010904/DTD/svg10.dtd">
<svg version="1.0" xmlns="http://www.w3.org/2000/svg"
 width="1478.000000pt" height="1478.000000pt" viewBox="0 0 1478.000000 1478.000000"
 preserveAspectRatio="xMidYMid meet">
<metadata>
Created by potrace 1.14, written by Peter Selinger 2001-2017
</metadata>
<g transform="translate(0.000000,1478.000000) scale(0.100000,-0.100000)"
fill="#000000" stroke="none">
<path d="M0 7390 l0 -7390 7390 0 7390 0 0 7390 0 7390 -7390 0 -7390 0 0
-7390z m3702 2618 l3 -1243 29 55 c226 430 668 736 1211 836 153 29 508 27
667 -4 795 -151 1329 -758 1429 -1622 16 -147 7 -452 -20 -600 -61 -346 -198
-649 -407 -900 -401 -484 -1063 -700 -1732 -565 -542 110 -996 423 -1148 793
l-24 57 0 -255 c0 -140 -3 -319 -7 -397 l-6 -143 -279 0 -278 0 0 2615 0 2615
280 0 280 0 2 -1242z m7891 430 c-60 -110 -102 -166 -169 -227 -68 -62 -161
-115 -262 -150 l-77 -26 -763 -3 -763 -3 12 23 c47 91 183 240 279 305 59 40
172 96 236 117 133 44 149 44 866 45 l687 1 -46 -82z m-2011 -743 c782 -103
1365 -630 1513 -1369 83 -417 44 -815 -115 -1153 -146 -310 -410 -587 -713
-749 l-88 -46 111 -54 c472 -227 755 -591 821 -1053 15 -105 7 -354 -16 -476
-123 -669 -658 -1135 -1420 -1239 -316 -43 -628 -26 -930 50 -525 133 -934
472 -1114 926 -27 68 -72 235 -86 321 l-6 37 284 0 284 0 18 -66 c10 -36 35
-101 56 -145 158 -328 479 -552 894 -625 131 -23 393 -23 525 -1 548 93 895
432 950 929 55 487 -213 877 -719 1049 -146 50 -275 69 -522 79 -243 10 -389
27 -539 65 -301 75 -542 202 -737 388 -144 138 -234 263 -322 447 -122 256
-181 546 -181 889 0 531 170 971 505 1306 135 135 260 225 430 309 196 98 406
160 625 185 123 14 371 12 492 -4z"/>
<path d="M4950 9165 c-310 -53 -567 -184 -784 -400 -358 -356 -489 -859 -350
-1343 34 -118 129 -310 205 -412 220 -298 523 -488 893 -562 155 -31 397 -31
543 1 528 112 897 514 994 1082 18 107 21 150 16 319 -4 140 -11 220 -25 285
-122 557 -503 939 -1026 1030 -108 18 -359 19 -466 0z"/>
<path d="M9200 9230 c-507 -53 -909 -395 -1056 -900 -58 -200 -74 -480 -39
-685 70 -404 281 -722 600 -900 179 -101 345 -145 572 -152 255 -9 419 24 618
122 349 173 584 495 661 910 14 74 19 146 19 280 0 200 -16 314 -66 468 -123
378 -394 665 -747 791 -159 57 -388 84 -562 66z"/>
</g>
</svg>
